<svg aria-roledescription="er" role="graphics-document document" viewBox="0 0 800.62060546875 835" style="max-width: 800.62060546875px;" xmlns:xlink="http://www.w3.org/1999/xlink" xmlns="http://www.w3.org/2000/svg" width="100%" id="mermaid-1717701888898"><style>#mermaid-1717701888898{font-family:"trebuchet ms",verdana,arial,sans-serif;font-size:16px;fill:#333;}#mermaid-1717701888898 .error-icon{fill:#552222;}#mermaid-1717701888898 .error-text{fill:#552222;stroke:#552222;}#mermaid-1717701888898 .edge-thickness-normal{stroke-width:2px;}#mermaid-1717701888898 .edge-thickness-thick{stroke-width:3.5px;}#mermaid-1717701888898 .edge-pattern-solid{stroke-dasharray:0;}#mermaid-1717701888898 .edge-pattern-dashed{stroke-dasharray:3;}#mermaid-1717701888898 .edge-pattern-dotted{stroke-dasharray:2;}#mermaid-1717701888898 .marker{fill:#333333;stroke:#333333;}#mermaid-1717701888898 .marker.cross{stroke:#333333;}#mermaid-1717701888898 svg{font-family:"trebuchet ms",verdana,arial,sans-serif;font-size:16px;}#mermaid-1717701888898 .entityBox{fill:#ECECFF;stroke:#9370DB;}#mermaid-1717701888898 .attributeBoxOdd{fill:#ffffff;stroke:#9370DB;}#mermaid-1717701888898 .attributeBoxEven{fill:#f2f2f2;stroke:#9370DB;}#mermaid-1717701888898 .relationshipLabelBox{fill:hsl(80, 100%, 96.2745098039%);opacity:0.7;background-color:hsl(80, 100%, 96.2745098039%);}#mermaid-1717701888898 .relationshipLabelBox rect{opacity:0.5;}#mermaid-1717701888898 .relationshipLine{stroke:#333333;}#mermaid-1717701888898 .entityTitleText{text-anchor:middle;font-size:18px;fill:#333;}#mermaid-1717701888898 #MD_PARENT_START{fill:#f5f5f5!important;stroke:#333333!important;stroke-width:1;}#mermaid-1717701888898 #MD_PARENT_END{fill:#f5f5f5!important;stroke:#333333!important;stroke-width:1;}#mermaid-1717701888898 :root{--mermaid-font-family:"trebuchet ms",verdana,arial,sans-serif;}</style><g/><defs><marker orient="auto" markerHeight="240" markerWidth="190" refY="7" refX="0" id="MD_PARENT_START"><path d="M 18,7 L9,13 L1,7 L9,1 Z"/></marker></defs><defs><marker orient="auto" markerHeight="28" markerWidth="20" refY="7" refX="19" id="MD_PARENT_END"><path d="M 18,7 L9,13 L1,7 L9,1 Z"/></marker></defs><defs><marker orient="auto" markerHeight="18" markerWidth="18" refY="9" refX="0" id="ONLY_ONE_START"><path d="M9,0 L9,18 M15,0 L15,18" fill="none" stroke="gray"/></marker></defs><defs><marker orient="auto" markerHeight="18" markerWidth="18" refY="9" refX="18" id="ONLY_ONE_END"><path d="M3,0 L3,18 M9,0 L9,18" fill="none" stroke="gray"/></marker></defs><defs><marker orient="auto" markerHeight="18" markerWidth="30" refY="9" refX="0" id="ZERO_OR_ONE_START"><circle r="6" cy="9" cx="21" fill="white" stroke="gray"/><path d="M9,0 L9,18" fill="none" stroke="gray"/></marker></defs><defs><marker orient="auto" markerHeight="18" markerWidth="30" refY="9" refX="30" id="ZERO_OR_ONE_END"><circle r="6" cy="9" cx="9" fill="white" stroke="gray"/><path d="M21,0 L21,18" fill="none" stroke="gray"/></marker></defs><defs><marker orient="auto" markerHeight="36" markerWidth="45" refY="18" refX="18" id="ONE_OR_MORE_START"><path d="M0,18 Q 18,0 36,18 Q 18,36 0,18 M42,9 L42,27" fill="none" stroke="gray"/></marker></defs><defs><marker orient="auto" markerHeight="36" markerWidth="45" refY="18" refX="27" id="ONE_OR_MORE_END"><path d="M3,9 L3,27 M9,18 Q27,0 45,18 Q27,36 9,18" fill="none" stroke="gray"/></marker></defs><defs><marker orient="auto" markerHeight="36" markerWidth="57" refY="18" refX="18" id="ZERO_OR_MORE_START"><circle r="6" cy="18" cx="48" fill="white" stroke="gray"/><path d="M0,18 Q18,0 36,18 Q18,36 0,18" fill="none" stroke="gray"/></marker></defs><defs><marker orient="auto" markerHeight="36" markerWidth="57" refY="18" refX="39" id="ZERO_OR_MORE_END"><circle r="6" cy="18" cx="9" fill="white" stroke="gray"/><path d="M21,18 Q39,0 57,18 Q39,36 21,18" fill="none" stroke="gray"/></marker></defs><path style="stroke: gray; fill: none;" marker-start="url(#ONLY_ONE_START)" marker-end="url(#ZERO_OR_MORE_END)" d="M154.204,353.925L144.481,362.771C134.757,371.617,115.31,389.308,105.586,406.488C95.863,423.667,95.863,440.333,95.863,448.667L95.863,457" class="er relationshipLine"/><path style="stroke: gray; fill: none;" marker-start="url(#ONLY_ONE_START)" marker-end="url(#ZERO_OR_MORE_END)" d="M653.059,128L653.059,136.333C653.059,144.667,653.059,161.333,653.059,179.75C653.059,198.167,653.059,218.333,653.059,228.417L653.059,238.5" class="er relationshipLine"/><path style="stroke: gray; fill: none;" marker-start="url(#ONLY_ONE_START)" marker-end="url(#ZERO_OR_MORE_END)" d="M289.246,353.925L298.969,362.771C308.693,371.617,328.14,389.308,337.864,411.738C347.588,434.167,347.588,461.333,347.588,474.917L347.588,488.5" class="er relationshipLine"/><path style="stroke: gray; fill: none;" marker-start="url(#ONLY_ONE_START)" marker-end="url(#ZERO_OR_MORE_END)" d="M608.202,575.5L594.194,589.083C580.187,602.667,552.172,629.833,523.764,655.25C495.355,680.667,466.552,704.333,452.151,716.167L437.749,728" class="er relationshipLine"/><path style="stroke: gray; fill: none;" marker-start="url(#ONLY_ONE_START)" marker-end="url(#ZERO_OR_MORE_END)" d="M347.588,575.5L347.588,589.083C347.588,602.667,347.588,629.833,353.277,655.25C358.966,680.667,370.344,704.333,376.033,716.167L381.722,728" class="er relationshipLine"/><path style="stroke: gray; fill: none;" marker-start="url(#ONLY_ONE_START)" marker-end="url(#ZERO_OR_MORE_END)" d="M653.059,346.5L653.059,356.583C653.059,366.667,653.059,386.833,653.059,410.5C653.059,434.167,653.059,461.333,653.059,474.917L653.059,488.5" class="er relationshipLine"/><path style="stroke: gray; fill: none;" marker-start="url(#ONLY_ONE_START)" marker-end="url(#ZERO_OR_MORE_END)" d="M670.459,575.5L675.893,589.083C681.326,602.667,692.193,629.833,697.626,651.75C703.059,673.667,703.059,690.333,703.059,698.667L703.059,707" class="er relationshipLine"/><g transform="translate(154.20420837402344,228 )" id="entity-LOCALIZACAO-972c9ee6-3f83-5185-a363-af8ebf687fd6"><rect height="129" width="135.04159545898438" y="0" x="0" class="er entityBox"/><text style="dominant-baseline: middle; text-anchor: middle; font-size: 12px;" transform="translate(67.52079772949219,12)" y="0" x="0" id="text-entity-LOCALIZACAO-972c9ee6-3f83-5185-a363-af8ebf687fd6" class="er entityLabel">LOCALIZACAO</text><rect height="21" width="55.62579345703125" y="24" x="0" class="er attributeBoxOdd"/><text style="dominant-baseline: middle; font-size: 10.2px;" transform="translate(5,34.5)" y="0" x="0" id="text-entity-LOCALIZACAO-972c9ee6-3f83-5185-a363-af8ebf687fd6-attr-1-type" class="er entityLabel">Id</text><rect height="21" width="55.620819091796875" y="24" x="55.62579345703125" class="er attributeBoxOdd"/><text style="dominant-baseline: middle; font-size: 10.2px;" transform="translate(60.62579345703125,34.5)" y="0" x="0" id="text-entity-LOCALIZACAO-972c9ee6-3f83-5185-a363-af8ebf687fd6-attr-1-name" class="er entityLabel">INTEGER</text><rect height="21" width="23.79498291015625" y="24" x="111.24661254882812" class="er attributeBoxOdd"/><text style="dominant-baseline: middle; font-size: 10.2px;" transform="translate(116.24661254882812,34.5)" y="0" x="0" id="text-entity-LOCALIZACAO-972c9ee6-3f83-5185-a363-af8ebf687fd6-attr-1-key" class="er entityLabel">PK</text><rect height="21" width="55.62579345703125" y="45" x="0" class="er attributeBoxEven"/><text style="dominant-baseline: middle; font-size: 10.2px;" transform="translate(5,55.5)" y="0" x="0" id="text-entity-LOCALIZACAO-972c9ee6-3f83-5185-a363-af8ebf687fd6-attr-2-type" class="er entityLabel">Nome</text><rect height="21" width="55.620819091796875" y="45" x="55.62579345703125" class="er attributeBoxEven"/><text style="dominant-baseline: middle; font-size: 10.2px;" transform="translate(60.62579345703125,55.5)" y="0" x="0" id="text-entity-LOCALIZACAO-972c9ee6-3f83-5185-a363-af8ebf687fd6-attr-2-name" class="er entityLabel">TEXT</text><rect height="21" width="23.79498291015625" y="45" x="111.24661254882812" class="er attributeBoxEven"/><text style="dominant-baseline: middle; font-size: 10.2px;" transform="translate(116.24661254882812,55.5)" y="0" x="0" id="text-entity-LOCALIZACAO-972c9ee6-3f83-5185-a363-af8ebf687fd6-attr-2-key" class="er entityLabel"/><rect height="21" width="55.62579345703125" y="66" x="0" class="er attributeBoxOdd"/><text style="dominant-baseline: middle; font-size: 10.2px;" transform="translate(5,76.5)" y="0" x="0" id="text-entity-LOCALIZACAO-972c9ee6-3f83-5185-a363-af8ebf687fd6-attr-3-type" class="er entityLabel">Descricao</text><rect height="21" width="55.620819091796875" y="66" x="55.62579345703125" class="er attributeBoxOdd"/><text style="dominant-baseline: middle; font-size: 10.2px;" transform="translate(60.62579345703125,76.5)" y="0" x="0" id="text-entity-LOCALIZACAO-972c9ee6-3f83-5185-a363-af8ebf687fd6-attr-3-name" class="er entityLabel">TEXT</text><rect height="21" width="23.79498291015625" y="66" x="111.24661254882812" class="er attributeBoxOdd"/><text style="dominant-baseline: middle; font-size: 10.2px;" transform="translate(116.24661254882812,76.5)" y="0" x="0" id="text-entity-LOCALIZACAO-972c9ee6-3f83-5185-a363-af8ebf687fd6-attr-3-key" class="er entityLabel"/><rect height="21" width="55.62579345703125" y="87" x="0" class="er attributeBoxEven"/><text style="dominant-baseline: middle; font-size: 10.2px;" transform="translate(5,97.5)" y="0" x="0" id="text-entity-LOCALIZACAO-972c9ee6-3f83-5185-a363-af8ebf687fd6-attr-4-type" class="er entityLabel">Lat</text><rect height="21" width="55.620819091796875" y="87" x="55.62579345703125" class="er attributeBoxEven"/><text style="dominant-baseline: middle; font-size: 10.2px;" transform="translate(60.62579345703125,97.5)" y="0" x="0" id="text-entity-LOCALIZACAO-972c9ee6-3f83-5185-a363-af8ebf687fd6-attr-4-name" class="er entityLabel">DECIMAL</text><rect height="21" width="23.79498291015625" y="87" x="111.24661254882812" class="er attributeBoxEven"/><text style="dominant-baseline: middle; font-size: 10.2px;" transform="translate(116.24661254882812,97.5)" y="0" x="0" id="text-entity-LOCALIZACAO-972c9ee6-3f83-5185-a363-af8ebf687fd6-attr-4-key" class="er entityLabel"/><rect height="21" width="55.62579345703125" y="108" x="0" class="er attributeBoxOdd"/><text style="dominant-baseline: middle; font-size: 10.2px;" transform="translate(5,118.5)" y="0" x="0" id="text-entity-LOCALIZACAO-972c9ee6-3f83-5185-a363-af8ebf687fd6-attr-5-type" class="er entityLabel">Lon</text><rect height="21" width="55.620819091796875" y="108" x="55.62579345703125" class="er attributeBoxOdd"/><text style="dominant-baseline: middle; font-size: 10.2px;" transform="translate(60.62579345703125,118.5)" y="0" x="0" id="text-entity-LOCALIZACAO-972c9ee6-3f83-5185-a363-af8ebf687fd6-attr-5-name" class="er entityLabel">DECIMAL</text><rect height="21" width="23.79498291015625" y="108" x="111.24661254882812" class="er attributeBoxOdd"/><text style="dominant-baseline: middle; font-size: 10.2px;" transform="translate(116.24661254882812,118.5)" y="0" x="0" id="text-entity-LOCALIZACAO-972c9ee6-3f83-5185-a363-af8ebf687fd6-attr-5-key" class="er entityLabel"/></g><g transform="translate(358.06859588623047,41 )" id="entity-sqlitesequence-ddbcd97c-504b-543f-b2f5-f0e7229837d7"><rect height="66" width="117.056640625" y="0" x="0" class="er entityBox"/><text style="dominant-baseline: middle; text-anchor: middle; font-size: 12px;" transform="translate(58.5283203125,12)" y="0" x="0" id="text-entity-sqlitesequence-ddbcd97c-504b-543f-b2f5-f0e7229837d7" class="er entityLabel">sqlite_sequence</text><rect height="21" width="58.413818359375" y="24" x="0" class="er attributeBoxOdd"/><text style="dominant-baseline: middle; font-size: 10.2px;" transform="translate(5,34.5)" y="0" x="0" id="text-entity-sqlitesequence-ddbcd97c-504b-543f-b2f5-f0e7229837d7-attr-1-type" class="er entityLabel">name</text><rect height="21" width="58.642822265625" y="24" x="58.413818359375" class="er attributeBoxOdd"/><text style="dominant-baseline: middle; font-size: 10.2px;" transform="translate(63.413818359375,34.5)" y="0" x="0" id="text-entity-sqlitesequence-ddbcd97c-504b-543f-b2f5-f0e7229837d7-attr-1-name" class="er entityLabel">TEXT</text><rect height="21" width="58.413818359375" y="45" x="0" class="er attributeBoxEven"/><text style="dominant-baseline: middle; font-size: 10.2px;" transform="translate(5,55.5)" y="0" x="0" id="text-entity-sqlitesequence-ddbcd97c-504b-543f-b2f5-f0e7229837d7-attr-2-type" class="er entityLabel">seq</text><rect height="21" width="58.642822265625" y="45" x="58.413818359375" class="er attributeBoxEven"/><text style="dominant-baseline: middle; font-size: 10.2px;" transform="translate(63.413818359375,55.5)" y="0" x="0" id="text-entity-sqlitesequence-ddbcd97c-504b-543f-b2f5-f0e7229837d7-attr-2-name" class="er entityLabel">TEXT</text></g><g transform="translate(20,457 )" id="entity-TESOURO-65e10df8-49cf-57b8-abea-7f5c69314b8e"><rect height="150" width="151.72500610351562" y="0" x="0" class="er entityBox"/><text style="dominant-baseline: middle; text-anchor: middle; font-size: 12px;" transform="translate(75.86250305175781,12)" y="0" x="0" id="text-entity-TESOURO-65e10df8-49cf-57b8-abea-7f5c69314b8e" class="er entityLabel">TESOURO</text><rect height="21" width="72.63314819335938" y="24" x="0" class="er attributeBoxOdd"/><text style="dominant-baseline: middle; font-size: 10.2px;" transform="translate(5,34.5)" y="0" x="0" id="text-entity-TESOURO-65e10df8-49cf-57b8-abea-7f5c69314b8e-attr-1-type" class="er entityLabel">Id</text><rect height="21" width="55.296875" y="24" x="72.63314819335938" class="er attributeBoxOdd"/><text style="dominant-baseline: middle; font-size: 10.2px;" transform="translate(77.63314819335938,34.5)" y="0" x="0" id="text-entity-TESOURO-65e10df8-49cf-57b8-abea-7f5c69314b8e-attr-1-name" class="er entityLabel">INTEGER</text><rect height="21" width="23.79498291015625" y="24" x="127.93002319335938" class="er attributeBoxOdd"/><text style="dominant-baseline: middle; font-size: 10.2px;" transform="translate(132.93002319335938,34.5)" y="0" x="0" id="text-entity-TESOURO-65e10df8-49cf-57b8-abea-7f5c69314b8e-attr-1-key" class="er entityLabel">PK</text><rect height="21" width="72.63314819335938" y="45" x="0" class="er attributeBoxEven"/><text style="dominant-baseline: middle; font-size: 10.2px;" transform="translate(5,55.5)" y="0" x="0" id="text-entity-TESOURO-65e10df8-49cf-57b8-abea-7f5c69314b8e-attr-2-type" class="er entityLabel">Nome</text><rect height="21" width="55.296875" y="45" x="72.63314819335938" class="er attributeBoxEven"/><text style="dominant-baseline: middle; font-size: 10.2px;" transform="translate(77.63314819335938,55.5)" y="0" x="0" id="text-entity-TESOURO-65e10df8-49cf-57b8-abea-7f5c69314b8e-attr-2-name" class="er entityLabel">TEXT</text><rect height="21" width="23.79498291015625" y="45" x="127.93002319335938" class="er attributeBoxEven"/><text style="dominant-baseline: middle; font-size: 10.2px;" transform="translate(132.93002319335938,55.5)" y="0" x="0" id="text-entity-TESOURO-65e10df8-49cf-57b8-abea-7f5c69314b8e-attr-2-key" class="er entityLabel"/><rect height="21" width="72.63314819335938" y="66" x="0" class="er attributeBoxOdd"/><text style="dominant-baseline: middle; font-size: 10.2px;" transform="translate(5,76.5)" y="0" x="0" id="text-entity-TESOURO-65e10df8-49cf-57b8-abea-7f5c69314b8e-attr-3-type" class="er entityLabel">Descricao</text><rect height="21" width="55.296875" y="66" x="72.63314819335938" class="er attributeBoxOdd"/><text style="dominant-baseline: middle; font-size: 10.2px;" transform="translate(77.63314819335938,76.5)" y="0" x="0" id="text-entity-TESOURO-65e10df8-49cf-57b8-abea-7f5c69314b8e-attr-3-name" class="er entityLabel">TEXT</text><rect height="21" width="23.79498291015625" y="66" x="127.93002319335938" class="er attributeBoxOdd"/><text style="dominant-baseline: middle; font-size: 10.2px;" transform="translate(132.93002319335938,76.5)" y="0" x="0" id="text-entity-TESOURO-65e10df8-49cf-57b8-abea-7f5c69314b8e-attr-3-key" class="er entityLabel"/><rect height="21" width="72.63314819335938" y="87" x="0" class="er attributeBoxEven"/><text style="dominant-baseline: middle; font-size: 10.2px;" transform="translate(5,97.5)" y="0" x="0" id="text-entity-TESOURO-65e10df8-49cf-57b8-abea-7f5c69314b8e-attr-4-type" class="er entityLabel">Tipo</text><rect height="21" width="55.296875" y="87" x="72.63314819335938" class="er attributeBoxEven"/><text style="dominant-baseline: middle; font-size: 10.2px;" transform="translate(77.63314819335938,97.5)" y="0" x="0" id="text-entity-TESOURO-65e10df8-49cf-57b8-abea-7f5c69314b8e-attr-4-name" class="er entityLabel">TEXT</text><rect height="21" width="23.79498291015625" y="87" x="127.93002319335938" class="er attributeBoxEven"/><text style="dominant-baseline: middle; font-size: 10.2px;" transform="translate(132.93002319335938,97.5)" y="0" x="0" id="text-entity-TESOURO-65e10df8-49cf-57b8-abea-7f5c69314b8e-attr-4-key" class="er entityLabel"/><rect height="21" width="72.63314819335938" y="108" x="0" class="er attributeBoxOdd"/><text style="dominant-baseline: middle; font-size: 10.2px;" transform="translate(5,118.5)" y="0" x="0" id="text-entity-TESOURO-65e10df8-49cf-57b8-abea-7f5c69314b8e-attr-5-type" class="er entityLabel">Origem</text><rect height="21" width="55.296875" y="108" x="72.63314819335938" class="er attributeBoxOdd"/><text style="dominant-baseline: middle; font-size: 10.2px;" transform="translate(77.63314819335938,118.5)" y="0" x="0" id="text-entity-TESOURO-65e10df8-49cf-57b8-abea-7f5c69314b8e-attr-5-name" class="er entityLabel">TEXT</text><rect height="21" width="23.79498291015625" y="108" x="127.93002319335938" class="er attributeBoxOdd"/><text style="dominant-baseline: middle; font-size: 10.2px;" transform="translate(132.93002319335938,118.5)" y="0" x="0" id="text-entity-TESOURO-65e10df8-49cf-57b8-abea-7f5c69314b8e-attr-5-key" class="er entityLabel"/><rect height="21" width="72.63314819335938" y="129" x="0" class="er attributeBoxEven"/><text style="dominant-baseline: middle; font-size: 10.2px;" transform="translate(5,139.5)" y="0" x="0" id="text-entity-TESOURO-65e10df8-49cf-57b8-abea-7f5c69314b8e-attr-6-type" class="er entityLabel">LocalizacaoId</text><rect height="21" width="55.296875" y="129" x="72.63314819335938" class="er attributeBoxEven"/><text style="dominant-baseline: middle; font-size: 10.2px;" transform="translate(77.63314819335938,139.5)" y="0" x="0" id="text-entity-TESOURO-65e10df8-49cf-57b8-abea-7f5c69314b8e-attr-6-name" class="er entityLabel">INTEGER</text><rect height="21" width="23.79498291015625" y="129" x="127.93002319335938" class="er attributeBoxEven"/><text style="dominant-baseline: middle; font-size: 10.2px;" transform="translate(132.93002319335938,139.5)" y="0" x="0" id="text-entity-TESOURO-65e10df8-49cf-57b8-abea-7f5c69314b8e-attr-6-key" class="er entityLabel"/></g><g transform="translate(575.1252365112305,20 )" id="entity-MUSEU-0249c5a1-8ea7-5aad-948e-e1c713b44927"><rect height="108" width="155.86819458007812" y="0" x="0" class="er entityBox"/><text style="dominant-baseline: middle; text-anchor: middle; font-size: 12px;" transform="translate(77.93409729003906,12)" y="0" x="0" id="text-entity-MUSEU-0249c5a1-8ea7-5aad-948e-e1c713b44927" class="er entityLabel">MUSEU</text><rect height="21" width="76.77633666992188" y="24" x="0" class="er attributeBoxOdd"/><text style="dominant-baseline: middle; font-size: 10.2px;" transform="translate(5,34.5)" y="0" x="0" id="text-entity-MUSEU-0249c5a1-8ea7-5aad-948e-e1c713b44927-attr-1-type" class="er entityLabel">Id</text><rect height="21" width="55.296875" y="24" x="76.77633666992188" class="er attributeBoxOdd"/><text style="dominant-baseline: middle; font-size: 10.2px;" transform="translate(81.77633666992188,34.5)" y="0" x="0" id="text-entity-MUSEU-0249c5a1-8ea7-5aad-948e-e1c713b44927-attr-1-name" class="er entityLabel">INTEGER</text><rect height="21" width="23.79498291015625" y="24" x="132.07321166992188" class="er attributeBoxOdd"/><text style="dominant-baseline: middle; font-size: 10.2px;" transform="translate(137.07321166992188,34.5)" y="0" x="0" id="text-entity-MUSEU-0249c5a1-8ea7-5aad-948e-e1c713b44927-attr-1-key" class="er entityLabel">PK</text><rect height="21" width="76.77633666992188" y="45" x="0" class="er attributeBoxEven"/><text style="dominant-baseline: middle; font-size: 10.2px;" transform="translate(5,55.5)" y="0" x="0" id="text-entity-MUSEU-0249c5a1-8ea7-5aad-948e-e1c713b44927-attr-2-type" class="er entityLabel">Nome</text><rect height="21" width="55.296875" y="45" x="76.77633666992188" class="er attributeBoxEven"/><text style="dominant-baseline: middle; font-size: 10.2px;" transform="translate(81.77633666992188,55.5)" y="0" x="0" id="text-entity-MUSEU-0249c5a1-8ea7-5aad-948e-e1c713b44927-attr-2-name" class="er entityLabel">TEXT</text><rect height="21" width="23.79498291015625" y="45" x="132.07321166992188" class="er attributeBoxEven"/><text style="dominant-baseline: middle; font-size: 10.2px;" transform="translate(137.07321166992188,55.5)" y="0" x="0" id="text-entity-MUSEU-0249c5a1-8ea7-5aad-948e-e1c713b44927-attr-2-key" class="er entityLabel"/><rect height="21" width="76.77633666992188" y="66" x="0" class="er attributeBoxOdd"/><text style="dominant-baseline: middle; font-size: 10.2px;" transform="translate(5,76.5)" y="0" x="0" id="text-entity-MUSEU-0249c5a1-8ea7-5aad-948e-e1c713b44927-attr-3-type" class="er entityLabel">Localizacao</text><rect height="21" width="55.296875" y="66" x="76.77633666992188" class="er attributeBoxOdd"/><text style="dominant-baseline: middle; font-size: 10.2px;" transform="translate(81.77633666992188,76.5)" y="0" x="0" id="text-entity-MUSEU-0249c5a1-8ea7-5aad-948e-e1c713b44927-attr-3-name" class="er entityLabel">TEXT</text><rect height="21" width="23.79498291015625" y="66" x="132.07321166992188" class="er attributeBoxOdd"/><text style="dominant-baseline: middle; font-size: 10.2px;" transform="translate(137.07321166992188,76.5)" y="0" x="0" id="text-entity-MUSEU-0249c5a1-8ea7-5aad-948e-e1c713b44927-attr-3-key" class="er entityLabel"/><rect height="21" width="76.77633666992188" y="87" x="0" class="er attributeBoxEven"/><text style="dominant-baseline: middle; font-size: 10.2px;" transform="translate(5,97.5)" y="0" x="0" id="text-entity-MUSEU-0249c5a1-8ea7-5aad-948e-e1c713b44927-attr-4-type" class="er entityLabel">TipoExposicao</text><rect height="21" width="55.296875" y="87" x="76.77633666992188" class="er attributeBoxEven"/><text style="dominant-baseline: middle; font-size: 10.2px;" transform="translate(81.77633666992188,97.5)" y="0" x="0" id="text-entity-MUSEU-0249c5a1-8ea7-5aad-948e-e1c713b44927-attr-4-name" class="er entityLabel">TEXT</text><rect height="21" width="23.79498291015625" y="87" x="132.07321166992188" class="er attributeBoxEven"/><text style="dominant-baseline: middle; font-size: 10.2px;" transform="translate(137.07321166992188,97.5)" y="0" x="0" id="text-entity-MUSEU-0249c5a1-8ea7-5aad-948e-e1c713b44927-attr-4-key" class="er entityLabel"/></g><g transform="translate(576.629753112793,238.5 )" id="entity-PESQUISADOR-946df79b-27d8-5c58-88cb-caf8776f6ede"><rect height="108" width="152.85916137695312" y="0" x="0" class="er entityBox"/><text style="dominant-baseline: middle; text-anchor: middle; font-size: 12px;" transform="translate(76.42958068847656,12)" y="0" x="0" id="text-entity-PESQUISADOR-946df79b-27d8-5c58-88cb-caf8776f6ede" class="er entityLabel">PESQUISADOR</text><rect height="21" width="73.76730346679688" y="24" x="0" class="er attributeBoxOdd"/><text style="dominant-baseline: middle; font-size: 10.2px;" transform="translate(5,34.5)" y="0" x="0" id="text-entity-PESQUISADOR-946df79b-27d8-5c58-88cb-caf8776f6ede-attr-1-type" class="er entityLabel">Id</text><rect height="21" width="55.296875" y="24" x="73.76730346679688" class="er attributeBoxOdd"/><text style="dominant-baseline: middle; font-size: 10.2px;" transform="translate(78.76730346679688,34.5)" y="0" x="0" id="text-entity-PESQUISADOR-946df79b-27d8-5c58-88cb-caf8776f6ede-attr-1-name" class="er entityLabel">INTEGER</text><rect height="21" width="23.79498291015625" y="24" x="129.06417846679688" class="er attributeBoxOdd"/><text style="dominant-baseline: middle; font-size: 10.2px;" transform="translate(134.06417846679688,34.5)" y="0" x="0" id="text-entity-PESQUISADOR-946df79b-27d8-5c58-88cb-caf8776f6ede-attr-1-key" class="er entityLabel">PK</text><rect height="21" width="73.76730346679688" y="45" x="0" class="er attributeBoxEven"/><text style="dominant-baseline: middle; font-size: 10.2px;" transform="translate(5,55.5)" y="0" x="0" id="text-entity-PESQUISADOR-946df79b-27d8-5c58-88cb-caf8776f6ede-attr-2-type" class="er entityLabel">Nome</text><rect height="21" width="55.296875" y="45" x="73.76730346679688" class="er attributeBoxEven"/><text style="dominant-baseline: middle; font-size: 10.2px;" transform="translate(78.76730346679688,55.5)" y="0" x="0" id="text-entity-PESQUISADOR-946df79b-27d8-5c58-88cb-caf8776f6ede-attr-2-name" class="er entityLabel">TEXT</text><rect height="21" width="23.79498291015625" y="45" x="129.06417846679688" class="er attributeBoxEven"/><text style="dominant-baseline: middle; font-size: 10.2px;" transform="translate(134.06417846679688,55.5)" y="0" x="0" id="text-entity-PESQUISADOR-946df79b-27d8-5c58-88cb-caf8776f6ede-attr-2-key" class="er entityLabel"/><rect height="21" width="73.76730346679688" y="66" x="0" class="er attributeBoxOdd"/><text style="dominant-baseline: middle; font-size: 10.2px;" transform="translate(5,76.5)" y="0" x="0" id="text-entity-PESQUISADOR-946df79b-27d8-5c58-88cb-caf8776f6ede-attr-3-type" class="er entityLabel">Especialidade</text><rect height="21" width="55.296875" y="66" x="73.76730346679688" class="er attributeBoxOdd"/><text style="dominant-baseline: middle; font-size: 10.2px;" transform="translate(78.76730346679688,76.5)" y="0" x="0" id="text-entity-PESQUISADOR-946df79b-27d8-5c58-88cb-caf8776f6ede-attr-3-name" class="er entityLabel">TEXT</text><rect height="21" width="23.79498291015625" y="66" x="129.06417846679688" class="er attributeBoxOdd"/><text style="dominant-baseline: middle; font-size: 10.2px;" transform="translate(134.06417846679688,76.5)" y="0" x="0" id="text-entity-PESQUISADOR-946df79b-27d8-5c58-88cb-caf8776f6ede-attr-3-key" class="er entityLabel"/><rect height="21" width="73.76730346679688" y="87" x="0" class="er attributeBoxEven"/><text style="dominant-baseline: middle; font-size: 10.2px;" transform="translate(5,97.5)" y="0" x="0" id="text-entity-PESQUISADOR-946df79b-27d8-5c58-88cb-caf8776f6ede-attr-4-type" class="er entityLabel">MuseuId</text><rect height="21" width="55.296875" y="87" x="73.76730346679688" class="er attributeBoxEven"/><text style="dominant-baseline: middle; font-size: 10.2px;" transform="translate(78.76730346679688,97.5)" y="0" x="0" id="text-entity-PESQUISADOR-946df79b-27d8-5c58-88cb-caf8776f6ede-attr-4-name" class="er entityLabel">INTEGER</text><rect height="21" width="23.79498291015625" y="87" x="129.06417846679688" class="er attributeBoxEven"/><text style="dominant-baseline: middle; font-size: 10.2px;" transform="translate(134.06417846679688,97.5)" y="0" x="0" id="text-entity-PESQUISADOR-946df79b-27d8-5c58-88cb-caf8776f6ede-attr-4-key" class="er entityLabel"/></g><g transform="translate(271.7250061035156,488.5 )" id="entity-PISTA-1f2876d4-d1e1-5772-bb46-d4bcc23ba2df"><rect height="87" width="151.72500610351562" y="0" x="0" class="er entityBox"/><text style="dominant-baseline: middle; text-anchor: middle; font-size: 12px;" transform="translate(75.86250305175781,12)" y="0" x="0" id="text-entity-PISTA-1f2876d4-d1e1-5772-bb46-d4bcc23ba2df" class="er entityLabel">PISTA</text><rect height="21" width="72.63314819335938" y="24" x="0" class="er attributeBoxOdd"/><text style="dominant-baseline: middle; font-size: 10.2px;" transform="translate(5,34.5)" y="0" x="0" id="text-entity-PISTA-1f2876d4-d1e1-5772-bb46-d4bcc23ba2df-attr-1-type" class="er entityLabel">Id</text><rect height="21" width="55.296875" y="24" x="72.63314819335938" class="er attributeBoxOdd"/><text style="dominant-baseline: middle; font-size: 10.2px;" transform="translate(77.63314819335938,34.5)" y="0" x="0" id="text-entity-PISTA-1f2876d4-d1e1-5772-bb46-d4bcc23ba2df-attr-1-name" class="er entityLabel">INTEGER</text><rect height="21" width="23.79498291015625" y="24" x="127.93002319335938" class="er attributeBoxOdd"/><text style="dominant-baseline: middle; font-size: 10.2px;" transform="translate(132.93002319335938,34.5)" y="0" x="0" id="text-entity-PISTA-1f2876d4-d1e1-5772-bb46-d4bcc23ba2df-attr-1-key" class="er entityLabel">PK</text><rect height="21" width="72.63314819335938" y="45" x="0" class="er attributeBoxEven"/><text style="dominant-baseline: middle; font-size: 10.2px;" transform="translate(5,55.5)" y="0" x="0" id="text-entity-PISTA-1f2876d4-d1e1-5772-bb46-d4bcc23ba2df-attr-2-type" class="er entityLabel">Descricao</text><rect height="21" width="55.296875" y="45" x="72.63314819335938" class="er attributeBoxEven"/><text style="dominant-baseline: middle; font-size: 10.2px;" transform="translate(77.63314819335938,55.5)" y="0" x="0" id="text-entity-PISTA-1f2876d4-d1e1-5772-bb46-d4bcc23ba2df-attr-2-name" class="er entityLabel">TEXT</text><rect height="21" width="23.79498291015625" y="45" x="127.93002319335938" class="er attributeBoxEven"/><text style="dominant-baseline: middle; font-size: 10.2px;" transform="translate(132.93002319335938,55.5)" y="0" x="0" id="text-entity-PISTA-1f2876d4-d1e1-5772-bb46-d4bcc23ba2df-attr-2-key" class="er entityLabel"/><rect height="21" width="72.63314819335938" y="66" x="0" class="er attributeBoxOdd"/><text style="dominant-baseline: middle; font-size: 10.2px;" transform="translate(5,76.5)" y="0" x="0" id="text-entity-PISTA-1f2876d4-d1e1-5772-bb46-d4bcc23ba2df-attr-3-type" class="er entityLabel">LocalizacaoId</text><rect height="21" width="55.296875" y="66" x="72.63314819335938" class="er attributeBoxOdd"/><text style="dominant-baseline: middle; font-size: 10.2px;" transform="translate(77.63314819335938,76.5)" y="0" x="0" id="text-entity-PISTA-1f2876d4-d1e1-5772-bb46-d4bcc23ba2df-attr-3-name" class="er entityLabel">INTEGER</text><rect height="21" width="23.79498291015625" y="66" x="127.93002319335938" class="er attributeBoxOdd"/><text style="dominant-baseline: middle; font-size: 10.2px;" transform="translate(132.93002319335938,76.5)" y="0" x="0" id="text-entity-PISTA-1f2876d4-d1e1-5772-bb46-d4bcc23ba2df-attr-3-key" class="er entityLabel"/></g><g transform="translate(317.34532165527344,728 )" id="entity-PISTAINVESTIGACAO-50919b08-4ff2-5297-aef8-5f15f5ba0a2f"><rect height="66" width="160.484375" y="0" x="0" class="er entityBox"/><text style="dominant-baseline: middle; text-anchor: middle; font-size: 12px;" transform="translate(80.2421875,12)" y="0" x="0" id="text-entity-PISTAINVESTIGACAO-50919b08-4ff2-5297-aef8-5f15f5ba0a2f" class="er entityLabel">PISTA_INVESTIGACAO</text><rect height="21" width="77.81793212890625" y="24" x="0" class="er attributeBoxOdd"/><text style="dominant-baseline: middle; font-size: 10.2px;" transform="translate(5,34.5)" y="0" x="0" id="text-entity-PISTAINVESTIGACAO-50919b08-4ff2-5297-aef8-5f15f5ba0a2f-attr-1-type" class="er entityLabel">PistaId</text><rect height="21" width="57.08416748046875" y="24" x="77.81793212890625" class="er attributeBoxOdd"/><text style="dominant-baseline: middle; font-size: 10.2px;" transform="translate(82.81793212890625,34.5)" y="0" x="0" id="text-entity-PISTAINVESTIGACAO-50919b08-4ff2-5297-aef8-5f15f5ba0a2f-attr-1-name" class="er entityLabel">INTEGER</text><rect height="21" width="25.582275390625" y="24" x="134.902099609375" class="er attributeBoxOdd"/><text style="dominant-baseline: middle; font-size: 10.2px;" transform="translate(139.902099609375,34.5)" y="0" x="0" id="text-entity-PISTAINVESTIGACAO-50919b08-4ff2-5297-aef8-5f15f5ba0a2f-attr-1-key" class="er entityLabel">PK</text><rect height="21" width="77.81793212890625" y="45" x="0" class="er attributeBoxEven"/><text style="dominant-baseline: middle; font-size: 10.2px;" transform="translate(5,55.5)" y="0" x="0" id="text-entity-PISTAINVESTIGACAO-50919b08-4ff2-5297-aef8-5f15f5ba0a2f-attr-2-type" class="er entityLabel">InvestigacaoId</text><rect height="21" width="57.08416748046875" y="45" x="77.81793212890625" class="er attributeBoxEven"/><text style="dominant-baseline: middle; font-size: 10.2px;" transform="translate(82.81793212890625,55.5)" y="0" x="0" id="text-entity-PISTAINVESTIGACAO-50919b08-4ff2-5297-aef8-5f15f5ba0a2f-attr-2-name" class="er entityLabel">INTEGER</text><rect height="21" width="25.582275390625" y="45" x="134.902099609375" class="er attributeBoxEven"/><text style="dominant-baseline: middle; font-size: 10.2px;" transform="translate(139.902099609375,55.5)" y="0" x="0" id="text-entity-PISTAINVESTIGACAO-50919b08-4ff2-5297-aef8-5f15f5ba0a2f-attr-2-key" class="er entityLabel">PK</text></g><g transform="translate(575.781623840332,488.5 )" id="entity-INVESTIGACAO-9d456203-c0f6-57ef-9453-dcd791b45735"><rect height="87" width="154.555419921875" y="0" x="0" class="er entityBox"/><text style="dominant-baseline: middle; text-anchor: middle; font-size: 12px;" transform="translate(77.2777099609375,12)" y="0" x="0" id="text-entity-INVESTIGACAO-9d456203-c0f6-57ef-9453-dcd791b45735" class="er entityLabel">INVESTIGACAO</text><rect height="21" width="75.46356201171875" y="24" x="0" class="er attributeBoxOdd"/><text style="dominant-baseline: middle; font-size: 10.2px;" transform="translate(5,34.5)" y="0" x="0" id="text-entity-INVESTIGACAO-9d456203-c0f6-57ef-9453-dcd791b45735-attr-1-type" class="er entityLabel">Id</text><rect height="21" width="55.296875" y="24" x="75.46356201171875" class="er attributeBoxOdd"/><text style="dominant-baseline: middle; font-size: 10.2px;" transform="translate(80.46356201171875,34.5)" y="0" x="0" id="text-entity-INVESTIGACAO-9d456203-c0f6-57ef-9453-dcd791b45735-attr-1-name" class="er entityLabel">INTEGER</text><rect height="21" width="23.79498291015625" y="24" x="130.76043701171875" class="er attributeBoxOdd"/><text style="dominant-baseline: middle; font-size: 10.2px;" transform="translate(135.76043701171875,34.5)" y="0" x="0" id="text-entity-INVESTIGACAO-9d456203-c0f6-57ef-9453-dcd791b45735-attr-1-key" class="er entityLabel">PK</text><rect height="21" width="75.46356201171875" y="45" x="0" class="er attributeBoxEven"/><text style="dominant-baseline: middle; font-size: 10.2px;" transform="translate(5,55.5)" y="0" x="0" id="text-entity-INVESTIGACAO-9d456203-c0f6-57ef-9453-dcd791b45735-attr-2-type" class="er entityLabel">PesquisadorId</text><rect height="21" width="55.296875" y="45" x="75.46356201171875" class="er attributeBoxEven"/><text style="dominant-baseline: middle; font-size: 10.2px;" transform="translate(80.46356201171875,55.5)" y="0" x="0" id="text-entity-INVESTIGACAO-9d456203-c0f6-57ef-9453-dcd791b45735-attr-2-name" class="er entityLabel">INTEGER</text><rect height="21" width="23.79498291015625" y="45" x="130.76043701171875" class="er attributeBoxEven"/><text style="dominant-baseline: middle; font-size: 10.2px;" transform="translate(135.76043701171875,55.5)" y="0" x="0" id="text-entity-INVESTIGACAO-9d456203-c0f6-57ef-9453-dcd791b45735-attr-2-key" class="er entityLabel"/><rect height="21" width="75.46356201171875" y="66" x="0" class="er attributeBoxOdd"/><text style="dominant-baseline: middle; font-size: 10.2px;" transform="translate(5,76.5)" y="0" x="0" id="text-entity-INVESTIGACAO-9d456203-c0f6-57ef-9453-dcd791b45735-attr-3-type" class="er entityLabel">Status</text><rect height="21" width="55.296875" y="66" x="75.46356201171875" class="er attributeBoxOdd"/><text style="dominant-baseline: middle; font-size: 10.2px;" transform="translate(80.46356201171875,76.5)" y="0" x="0" id="text-entity-INVESTIGACAO-9d456203-c0f6-57ef-9453-dcd791b45735-attr-3-name" class="er entityLabel">TEXT</text><rect height="21" width="23.79498291015625" y="66" x="130.76043701171875" class="er attributeBoxOdd"/><text style="dominant-baseline: middle; font-size: 10.2px;" transform="translate(135.76043701171875,76.5)" y="0" x="0" id="text-entity-INVESTIGACAO-9d456203-c0f6-57ef-9453-dcd791b45735-attr-3-key" class="er entityLabel"/></g><g transform="translate(625.4980850219727,707 )" id="entity-RELATO-85c2e60b-d413-5e97-9d3a-2cb3f2875520"><rect height="108" width="155.12249755859375" y="0" x="0" class="er entityBox"/><text style="dominant-baseline: middle; text-anchor: middle; font-size: 12px;" transform="translate(77.56124877929688,12)" y="0" x="0" id="text-entity-RELATO-85c2e60b-d413-5e97-9d3a-2cb3f2875520" class="er entityLabel">RELATO</text><rect height="21" width="76.0306396484375" y="24" x="0" class="er attributeBoxOdd"/><text style="dominant-baseline: middle; font-size: 10.2px;" transform="translate(5,34.5)" y="0" x="0" id="text-entity-RELATO-85c2e60b-d413-5e97-9d3a-2cb3f2875520-attr-1-type" class="er entityLabel">Id</text><rect height="21" width="55.296875" y="24" x="76.0306396484375" class="er attributeBoxOdd"/><text style="dominant-baseline: middle; font-size: 10.2px;" transform="translate(81.0306396484375,34.5)" y="0" x="0" id="text-entity-RELATO-85c2e60b-d413-5e97-9d3a-2cb3f2875520-attr-1-name" class="er entityLabel">INTEGER</text><rect height="21" width="23.79498291015625" y="24" x="131.3275146484375" class="er attributeBoxOdd"/><text style="dominant-baseline: middle; font-size: 10.2px;" transform="translate(136.3275146484375,34.5)" y="0" x="0" id="text-entity-RELATO-85c2e60b-d413-5e97-9d3a-2cb3f2875520-attr-1-key" class="er entityLabel">PK</text><rect height="21" width="76.0306396484375" y="45" x="0" class="er attributeBoxEven"/><text style="dominant-baseline: middle; font-size: 10.2px;" transform="translate(5,55.5)" y="0" x="0" id="text-entity-RELATO-85c2e60b-d413-5e97-9d3a-2cb3f2875520-attr-2-type" class="er entityLabel">Texto</text><rect height="21" width="55.296875" y="45" x="76.0306396484375" class="er attributeBoxEven"/><text style="dominant-baseline: middle; font-size: 10.2px;" transform="translate(81.0306396484375,55.5)" y="0" x="0" id="text-entity-RELATO-85c2e60b-d413-5e97-9d3a-2cb3f2875520-attr-2-name" class="er entityLabel">TEXT</text><rect height="21" width="23.79498291015625" y="45" x="131.3275146484375" class="er attributeBoxEven"/><text style="dominant-baseline: middle; font-size: 10.2px;" transform="translate(136.3275146484375,55.5)" y="0" x="0" id="text-entity-RELATO-85c2e60b-d413-5e97-9d3a-2cb3f2875520-attr-2-key" class="er entityLabel"/><rect height="21" width="76.0306396484375" y="66" x="0" class="er attributeBoxOdd"/><text style="dominant-baseline: middle; font-size: 10.2px;" transform="translate(5,76.5)" y="0" x="0" id="text-entity-RELATO-85c2e60b-d413-5e97-9d3a-2cb3f2875520-attr-3-type" class="er entityLabel">Confianca</text><rect height="21" width="55.296875" y="66" x="76.0306396484375" class="er attributeBoxOdd"/><text style="dominant-baseline: middle; font-size: 10.2px;" transform="translate(81.0306396484375,76.5)" y="0" x="0" id="text-entity-RELATO-85c2e60b-d413-5e97-9d3a-2cb3f2875520-attr-3-name" class="er entityLabel">INTEGER</text><rect height="21" width="23.79498291015625" y="66" x="131.3275146484375" class="er attributeBoxOdd"/><text style="dominant-baseline: middle; font-size: 10.2px;" transform="translate(136.3275146484375,76.5)" y="0" x="0" id="text-entity-RELATO-85c2e60b-d413-5e97-9d3a-2cb3f2875520-attr-3-key" class="er entityLabel"/><rect height="21" width="76.0306396484375" y="87" x="0" class="er attributeBoxEven"/><text style="dominant-baseline: middle; font-size: 10.2px;" transform="translate(5,97.5)" y="0" x="0" id="text-entity-RELATO-85c2e60b-d413-5e97-9d3a-2cb3f2875520-attr-4-type" class="er entityLabel">InvestigacaoId</text><rect height="21" width="55.296875" y="87" x="76.0306396484375" class="er attributeBoxEven"/><text style="dominant-baseline: middle; font-size: 10.2px;" transform="translate(81.0306396484375,97.5)" y="0" x="0" id="text-entity-RELATO-85c2e60b-d413-5e97-9d3a-2cb3f2875520-attr-4-name" class="er entityLabel">INTEGER</text><rect height="21" width="23.79498291015625" y="87" x="131.3275146484375" class="er attributeBoxEven"/><text style="dominant-baseline: middle; font-size: 10.2px;" transform="translate(136.3275146484375,97.5)" y="0" x="0" id="text-entity-RELATO-85c2e60b-d413-5e97-9d3a-2cb3f2875520-attr-4-key" class="er entityLabel"/></g><rect height="0" width="0" y="398.20654296875" x="110.945556640625" class="er relationshipLabelBox"/><text style="text-anchor: middle; dominant-baseline: middle; font-size: 12px;" y="398.20654296875" x="110.945556640625" id="rel1" class="er relationshipLabel"/><rect height="0" width="0" y="183.25" x="653.0590209960938" class="er relationshipLabelBox"/><text style="text-anchor: middle; dominant-baseline: middle; font-size: 12px;" y="183.25" x="653.0590209960938" id="rel2" class="er relationshipLabel"/><rect height="0" width="0" y="412.5648193359375" x="338.2166748046875" class="er relationshipLabelBox"/><text style="text-anchor: middle; dominant-baseline: middle; font-size: 12px;" y="412.5648193359375" x="338.2166748046875" id="rel3" class="er relationshipLabel"/><rect height="0" width="0" y="654.0848388671875" x="525.06298828125" class="er relationshipLabelBox"/><text style="text-anchor: middle; dominant-baseline: middle; font-size: 12px;" y="654.0848388671875" x="525.06298828125" id="rel4" class="er relationshipLabel"/><rect height="0" width="0" y="654.357666015625" x="353.08001708984375" class="er relationshipLabelBox"/><text style="text-anchor: middle; dominant-baseline: middle; font-size: 12px;" y="654.357666015625" x="353.08001708984375" id="rel5" class="er relationshipLabel"/><rect height="0" width="0" y="417.5" x="653.0590209960938" class="er relationshipLabelBox"/><text style="text-anchor: middle; dominant-baseline: middle; font-size: 12px;" y="417.5" x="653.0590209960938" id="rel6" class="er relationshipLabel"/><rect height="0" width="0" y="639.5553588867188" x="694.2391967773438" class="er relationshipLabelBox"/><text style="text-anchor: middle; dominant-baseline: middle; font-size: 12px;" y="639.5553588867188" x="694.2391967773438" id="rel7" class="er relationshipLabel"/></svg>